<?xml version="1.0" standalone="no"?>
<svg viewBox="0 0 200 200" xmlns="http://www.w3.org/2000/svg">
  <path fill="rgba(26,115,232,0.4)" d="M48.9,-66.8C63.5,-56.6,75.6,-42.6,81.4,-26.1C87.3,-9.7,86.8,9.2,78.1,22.1C69.4,35,52.5,42,38.1,51.4C23.8,60.8,11.9,72.5,-2.6,76.1C-17.1,79.7,-34.2,75.2,-46.3,65.1C-58.3,55,-65.3,39.2,-66.3,24.4C-67.2,9.5,-62.1,-4.5,-59.3,-21.1C-56.4,-37.6,-55.7,-56.6,-46.2,-68.4C-36.6,-80.2,-18.3,-84.8,-0.6,-84C17.1,-83.1,34.2,-76.9,48.9,-66.8Z" transform="translate(100 100)" />
</svg>
