<svg xmlns="http://www.w3.org/2000/svg" xmlns:xlink="http://www.w3.org/1999/xlink" aria-hidden="true" role="img" width="1em" height="1em" preserveAspectRatio="xMidYMid meet" viewBox="0 0 256 256"><path d="M236.438 73.344l-23.231-15.489A60.01 60.01 0 0 0 96 76v17.194L1.753 211.002A8 8 0 0 0 8 224h104a104.118 104.118 0 0 0 104-104v-19.719l20.438-13.625a8 8 0 0 0 0-13.312zm-126.292 67.778l-40 48a8 8 0 0 1-12.292-10.244l40-48a8 8 0 0 1 12.292 10.244zM164 80a12 12 0 1 1 12-12a12 12 0 0 1-12 12z" fill="#1e8e3e"/></svg>