<svg xmlns="http://www.w3.org/2000/svg" xmlns:xlink="http://www.w3.org/1999/xlink" aria-hidden="true" role="img" width="1em" height="1em" preserveAspectRatio="xMidYMid meet" viewBox="0 0 512 512">
  <path fill="#1e8e3e" d="M464 72H48a32.036 32.036 0 0 0-32 32v304a32.036 32.036 0 0 0 32 32h416a32.036 32.036 0 0 0 32-32V104a32.036 32.036 0 0 0-32-32zm0 336H48V104h416l.02 304z" />
  <path fill="#1e8e3e" d="M232 184h184v32H232z" />
  <path fill="#1e8e3e" d="M176 256h240v32H176z" />
  <path fill="#1e8e3e" d="M176 328h240v32H176z" />
  <path fill="#1e8e3e" d="M88.923 144v128.923l99.172-69.42L88.923 144z" /></svg>